<svg xmlns="http://www.w3.org/2000/svg" xmlns:xlink="http://www.w3.org/1999/xlink" contentStyleType="text/css" height="1056px" preserveAspectRatio="none" style="width:1306px;height:1056px;background:#FFFFFF;" version="1.1" viewBox="0 0 1306 1056" width="1306px" zoomAndPan="magnify"><defs/><g><!--class Banco--><g id="elem_Banco"><rect codeLine="2" fill="#F1F1F1" height="194.6719" id="Banco" rx="2.5" ry="2.5" style="stroke:#181818;stroke-width:0.5;" width="367.8652" x="61" y="7"/><ellipse cx="219.0229" cy="23" fill="#ADD1B2" rx="11" ry="11" style="stroke:#181818;stroke-width:1.0;"/><path d="M221.9917,28.6406 Q221.4136,28.9375 220.7729,29.0781 Q220.1323,29.2344 219.4292,29.2344 Q216.9292,29.2344 215.6011,27.5938 Q214.2886,25.9375 214.2886,22.8125 Q214.2886,19.6875 215.6011,18.0313 Q216.9292,16.375 219.4292,16.375 Q220.1323,16.375 220.7729,16.5313 Q221.4292,16.6875 221.9917,16.9844 L221.9917,19.7031 Q221.3667,19.125 220.7729,18.8594 Q220.1792,18.5781 219.5542,18.5781 Q218.2104,18.5781 217.5229,19.6563 Q216.8354,20.7188 216.8354,22.8125 Q216.8354,24.9063 217.5229,25.9844 Q218.2104,27.0469 219.5542,27.0469 Q220.1792,27.0469 220.7729,26.7813 Q221.3667,26.5 221.9917,25.9219 L221.9917,28.6406 Z " fill="#000000"/><text fill="#000000" font-family="sans-serif" font-size="14" lengthAdjust="spacing" textLength="43.3193" x="239.5229" y="27.8467">Banco</text><line style="stroke:#181818;stroke-width:0.5;" x1="62" x2="427.8652" y1="39" y2="39"/><rect fill="none" height="6" style="stroke:#C82930;stroke-width:1.0;" width="6" x="69" y="49.6484"/><text fill="#000000" font-family="sans-serif" font-size="14" lengthAdjust="spacing" textLength="155.8867" x="81" y="55.9951">List&lt;Cliente&gt; clientes</text><line style="stroke:#181818;stroke-width:0.5;" x1="62" x2="427.8652" y1="63.2969" y2="63.2969"/><ellipse cx="72" cy="76.9453" fill="#84BE84" rx="3" ry="3" style="stroke:#038048;stroke-width:1.0;"/><text fill="#000000" font-family="sans-serif" font-size="14" lengthAdjust="spacing" textLength="54.2432" x="81" y="80.292">Banco()</text><ellipse cx="72" cy="93.2422" fill="#84BE84" rx="3" ry="3" style="stroke:#038048;stroke-width:1.0;"/><text fill="#000000" font-family="sans-serif" font-size="14" lengthAdjust="spacing" textLength="191.8779" x="81" y="96.5889">List&lt;Cliente&gt; getClientes()</text><ellipse cx="72" cy="109.5391" fill="#84BE84" rx="3" ry="3" style="stroke:#038048;stroke-width:1.0;"/><text fill="#000000" font-family="sans-serif" font-size="14" lengthAdjust="spacing" textLength="259.5195" x="81" y="112.8857">void adicionarCliente(Cliente cliente)</text><ellipse cx="72" cy="125.8359" fill="#84BE84" rx="3" ry="3" style="stroke:#038048;stroke-width:1.0;"/><text fill="#000000" font-family="sans-serif" font-size="14" lengthAdjust="spacing" textLength="254.0303" x="81" y="129.1826">void removerCliente(Cliente cliente)</text><ellipse cx="72" cy="142.1328" fill="#84BE84" rx="3" ry="3" style="stroke:#038048;stroke-width:1.0;"/><text fill="#000000" font-family="sans-serif" font-size="14" lengthAdjust="spacing" textLength="280.0615" x="81" y="145.4795">void criarContaCorrente(Cliente cliente)</text><ellipse cx="72" cy="158.4297" fill="#84BE84" rx="3" ry="3" style="stroke:#038048;stroke-width:1.0;"/><text fill="#000000" font-family="sans-serif" font-size="14" lengthAdjust="spacing" textLength="287.1162" x="81" y="161.7764">void criarContaPoupanca(Cliente cliente)</text><ellipse cx="72" cy="174.7266" fill="#84BE84" rx="3" ry="3" style="stroke:#038048;stroke-width:1.0;"/><text fill="#000000" font-family="sans-serif" font-size="14" lengthAdjust="spacing" textLength="341.8652" x="81" y="178.0732">void criarConta(Cliente cliente, String tipoConta)</text><ellipse cx="72" cy="191.0234" fill="#84BE84" rx="3" ry="3" style="stroke:#038048;stroke-width:1.0;"/><text fill="#000000" font-family="sans-serif" font-size="14" lengthAdjust="spacing" textLength="112.9912" x="81" y="194.3701">String toString()</text></g><!--class Cliente--><g id="elem_Cliente"><rect codeLine="14" fill="#F1F1F1" height="276.1563" id="Cliente" rx="2.5" ry="2.5" style="stroke:#181818;stroke-width:0.5;" width="483.4404" x="410.5" y="279"/><ellipse cx="623.3984" cy="295" fill="#ADD1B2" rx="11" ry="11" style="stroke:#181818;stroke-width:1.0;"/><path d="M626.3672,300.6406 Q625.7891,300.9375 625.1484,301.0781 Q624.5078,301.2344 623.8047,301.2344 Q621.3047,301.2344 619.9766,299.5938 Q618.6641,297.9375 618.6641,294.8125 Q618.6641,291.6875 619.9766,290.0313 Q621.3047,288.375 623.8047,288.375 Q624.5078,288.375 625.1484,288.5313 Q625.8047,288.6875 626.3672,288.9844 L626.3672,291.7031 Q625.7422,291.125 625.1484,290.8594 Q624.5547,290.5781 623.9297,290.5781 Q622.5859,290.5781 621.8984,291.6563 Q621.2109,292.7188 621.2109,294.8125 Q621.2109,296.9063 621.8984,297.9844 Q622.5859,299.0469 623.9297,299.0469 Q624.5547,299.0469 625.1484,298.7813 Q625.7422,298.5 626.3672,297.9219 L626.3672,300.6406 Z " fill="#000000"/><text fill="#000000" font-family="sans-serif" font-size="14" lengthAdjust="spacing" textLength="49.1436" x="643.8984" y="299.8467">Cliente</text><line style="stroke:#181818;stroke-width:0.5;" x1="411.5" x2="892.9404" y1="311" y2="311"/><rect fill="none" height="6" style="stroke:#C82930;stroke-width:1.0;" width="6" x="418.5" y="321.6484"/><text fill="#000000" font-family="sans-serif" font-size="14" lengthAdjust="spacing" textLength="190.1621" x="430.5" y="327.9951">static int contadorIdCliente</text><rect fill="none" height="6" style="stroke:#C82930;stroke-width:1.0;" width="6" x="418.5" y="337.9453"/><text fill="#000000" font-family="sans-serif" font-size="14" lengthAdjust="spacing" textLength="84.6221" x="430.5" y="344.292">int idCliente</text><rect fill="none" height="6" style="stroke:#C82930;stroke-width:1.0;" width="6" x="418.5" y="354.2422"/><text fill="#000000" font-family="sans-serif" font-size="14" lengthAdjust="spacing" textLength="85.9209" x="430.5" y="360.5889">String nome</text><rect fill="none" height="6" style="stroke:#C82930;stroke-width:1.0;" width="6" x="418.5" y="370.5391"/><text fill="#000000" font-family="sans-serif" font-size="14" lengthAdjust="spacing" textLength="126.6357" x="430.5" y="376.8857">String sobreNome</text><rect fill="none" height="6" style="stroke:#C82930;stroke-width:1.0;" width="6" x="418.5" y="386.8359"/><text fill="#000000" font-family="sans-serif" font-size="14" lengthAdjust="spacing" textLength="67.7441" x="430.5" y="393.1826">String cpf</text><rect fill="none" height="6" style="stroke:#C82930;stroke-width:1.0;" width="6" x="418.5" y="403.1328"/><text fill="#000000" font-family="sans-serif" font-size="14" lengthAdjust="spacing" textLength="140.1641" x="430.5" y="409.4795">List&lt;Conta&gt; contas</text><line style="stroke:#181818;stroke-width:0.5;" x1="411.5" x2="892.9404" y1="416.7813" y2="416.7813"/><ellipse cx="421.5" cy="430.4297" fill="#84BE84" rx="3" ry="3" style="stroke:#038048;stroke-width:1.0;"/><text fill="#000000" font-family="sans-serif" font-size="14" lengthAdjust="spacing" textLength="457.4404" x="430.5" y="433.7764">Cliente(String nome, String sobreNome, String cpf, Banco banco)</text><ellipse cx="421.5" cy="446.7266" fill="#84BE84" rx="3" ry="3" style="stroke:#038048;stroke-width:1.0;"/><text fill="#000000" font-family="sans-serif" font-size="14" lengthAdjust="spacing" textLength="121.4336" x="430.5" y="450.0732">String getNome()</text><ellipse cx="421.5" cy="463.0234" fill="#84BE84" rx="3" ry="3" style="stroke:#038048;stroke-width:1.0;"/><text fill="#000000" font-family="sans-serif" font-size="14" lengthAdjust="spacing" textLength="162.1416" x="430.5" y="466.3701">String getSobreNome()</text><ellipse cx="421.5" cy="479.3203" fill="#84BE84" rx="3" ry="3" style="stroke:#038048;stroke-width:1.0;"/><text fill="#000000" font-family="sans-serif" font-size="14" lengthAdjust="spacing" textLength="103.7354" x="430.5" y="482.667">String getCpf()</text><ellipse cx="421.5" cy="495.6172" fill="#84BE84" rx="3" ry="3" style="stroke:#038048;stroke-width:1.0;"/><text fill="#000000" font-family="sans-serif" font-size="14" lengthAdjust="spacing" textLength="176.1553" x="430.5" y="498.9639">List&lt;Conta&gt; getContas()</text><ellipse cx="421.5" cy="511.9141" fill="#84BE84" rx="3" ry="3" style="stroke:#038048;stroke-width:1.0;"/><text fill="#000000" font-family="sans-serif" font-size="14" lengthAdjust="spacing" textLength="243.2295" x="430.5" y="515.2607">void adicionarContas(Conta conta)</text><ellipse cx="421.5" cy="528.2109" fill="#84BE84" rx="3" ry="3" style="stroke:#038048;stroke-width:1.0;"/><text fill="#000000" font-family="sans-serif" font-size="14" lengthAdjust="spacing" textLength="237.7402" x="430.5" y="531.5576">void removerContas(Conta conta)</text><ellipse cx="421.5" cy="544.5078" fill="#84BE84" rx="3" ry="3" style="stroke:#038048;stroke-width:1.0;"/><text fill="#000000" font-family="sans-serif" font-size="14" lengthAdjust="spacing" textLength="112.9912" x="430.5" y="547.8545">String toString()</text></g><!--class Conta--><g id="elem_Conta"><rect codeLine="31" fill="#F1F1F1" height="276.1563" id="Conta" rx="2.5" ry="2.5" style="stroke:#181818;stroke-width:0.5;" width="370.5176" x="697.5" y="632"/><ellipse cx="857.8677" cy="648" fill="#A9DCDF" rx="11" ry="11" style="stroke:#181818;stroke-width:1.0;"/><path d="M857.9771,643.3438 L856.8208,648.4219 L859.1489,648.4219 L857.9771,643.3438 Z M856.4927,641.1094 L859.4771,641.1094 L862.8364,653.5 L860.3833,653.5 L859.6177,650.4375 L856.3364,650.4375 L855.5864,653.5 L853.1489,653.5 L856.4927,641.1094 Z " fill="#000000"/><text fill="#000000" font-family="sans-serif" font-size="14" font-style="italic" lengthAdjust="spacing" textLength="41.2822" x="878.3677" y="652.8467">Conta</text><line style="stroke:#181818;stroke-width:0.5;" x1="698.5" x2="1067.0176" y1="664" y2="664"/><rect fill="none" height="6" style="stroke:#C82930;stroke-width:1.0;" width="6" x="705.5" y="674.6484"/><text fill="#000000" font-family="sans-serif" font-size="14" lengthAdjust="spacing" textLength="229.5508" x="717.5" y="680.9951">static final int AGENCIA_PADRAO</text><rect fill="none" height="6" style="stroke:#C82930;stroke-width:1.0;" width="6" x="705.5" y="690.9453"/><text fill="#000000" font-family="sans-serif" font-size="14" lengthAdjust="spacing" textLength="155.1895" x="717.5" y="697.292">static int SEQUENCIAL</text><rect fill="none" height="6" style="stroke:#C82930;stroke-width:1.0;" width="6" x="705.5" y="707.2422"/><text fill="#000000" font-family="sans-serif" font-size="14" lengthAdjust="spacing" textLength="77.8203" x="717.5" y="713.5889">int agencia</text><rect fill="none" height="6" style="stroke:#C82930;stroke-width:1.0;" width="6" x="705.5" y="723.5391"/><text fill="#000000" font-family="sans-serif" font-size="14" lengthAdjust="spacing" textLength="77.0205" x="717.5" y="729.8857">int numero</text><rect fill="none" height="6" style="stroke:#C82930;stroke-width:1.0;" width="6" x="705.5" y="739.8359"/><text fill="#000000" font-family="sans-serif" font-size="14" lengthAdjust="spacing" textLength="89.3799" x="717.5" y="746.1826">double saldo</text><line style="stroke:#181818;stroke-width:0.5;" x1="698.5" x2="1067.0176" y1="753.4844" y2="753.4844"/><ellipse cx="708.5" cy="767.1328" fill="#84BE84" rx="3" ry="3" style="stroke:#038048;stroke-width:1.0;"/><text fill="#000000" font-family="sans-serif" font-size="14" lengthAdjust="spacing" textLength="152.8652" x="717.5" y="770.4795">Conta(Cliente cliente)</text><ellipse cx="708.5" cy="783.4297" fill="#84BE84" rx="3" ry="3" style="stroke:#038048;stroke-width:1.0;"/><text fill="#000000" font-family="sans-serif" font-size="14" lengthAdjust="spacing" textLength="170.1465" x="717.5" y="786.7764">void sacar(double valor)</text><ellipse cx="708.5" cy="799.7266" fill="#84BE84" rx="3" ry="3" style="stroke:#038048;stroke-width:1.0;"/><text fill="#000000" font-family="sans-serif" font-size="14" lengthAdjust="spacing" textLength="198.2012" x="717.5" y="803.0732">void depositar(double valor)</text><ellipse cx="708.5" cy="816.0234" fill="#84BE84" rx="3" ry="3" style="stroke:#038048;stroke-width:1.0;"/><text fill="#000000" font-family="sans-serif" font-size="14" lengthAdjust="spacing" textLength="344.5176" x="717.5" y="819.3701">void transferir(double valor, Conta contaDestino)</text><ellipse cx="708.5" cy="832.3203" fill="#84BE84" rx="3" ry="3" style="stroke:#038048;stroke-width:1.0;"/><text fill="#000000" font-family="sans-serif" font-size="14" lengthAdjust="spacing" textLength="112.7314" x="717.5" y="835.667">int getAgencia()</text><ellipse cx="708.5" cy="848.6172" fill="#84BE84" rx="3" ry="3" style="stroke:#038048;stroke-width:1.0;"/><text fill="#000000" font-family="sans-serif" font-size="14" lengthAdjust="spacing" textLength="112.5332" x="717.5" y="851.9639">int getNumero()</text><ellipse cx="708.5" cy="864.9141" fill="#84BE84" rx="3" ry="3" style="stroke:#038048;stroke-width:1.0;"/><text fill="#000000" font-family="sans-serif" font-size="14" lengthAdjust="spacing" textLength="124.8857" x="717.5" y="868.2607">double getSaldo()</text><ellipse cx="708.5" cy="881.2109" fill="#84BE84" rx="3" ry="3" style="stroke:#038048;stroke-width:1.0;"/><text fill="#000000" font-family="sans-serif" font-size="14" lengthAdjust="spacing" textLength="267.5996" x="717.5" y="884.5576">protected void imprimirInfosComuns()</text><ellipse cx="708.5" cy="897.5078" fill="#84BE84" rx="3" ry="3" style="stroke:#038048;stroke-width:1.0;"/><text fill="#000000" font-family="sans-serif" font-size="14" lengthAdjust="spacing" textLength="112.9912" x="717.5" y="900.8545">String toString()</text></g><!--class ContaCorrente--><g id="elem_ContaCorrente"><rect codeLine="48" fill="#F1F1F1" height="80.5938" id="ContaCorrente" rx="2.5" ry="2.5" style="stroke:#181818;stroke-width:0.5;" width="240.3066" x="624" y="969"/><ellipse cx="688.5415" cy="985" fill="#ADD1B2" rx="11" ry="11" style="stroke:#181818;stroke-width:1.0;"/><path d="M691.5103,990.6406 Q690.9321,990.9375 690.2915,991.0781 Q689.6509,991.2344 688.9478,991.2344 Q686.4478,991.2344 685.1196,989.5938 Q683.8071,987.9375 683.8071,984.8125 Q683.8071,981.6875 685.1196,980.0313 Q686.4478,978.375 688.9478,978.375 Q689.6509,978.375 690.2915,978.5313 Q690.9478,978.6875 691.5103,978.9844 L691.5103,981.7031 Q690.8853,981.125 690.2915,980.8594 Q689.6978,980.5781 689.0728,980.5781 Q687.729,980.5781 687.0415,981.6563 Q686.354,982.7188 686.354,984.8125 Q686.354,986.9063 687.0415,987.9844 Q687.729,989.0469 689.0728,989.0469 Q689.6978,989.0469 690.2915,988.7813 Q690.8853,988.5 691.5103,987.9219 L691.5103,990.6406 Z " fill="#000000"/><text fill="#000000" font-family="sans-serif" font-size="14" lengthAdjust="spacing" textLength="102.7236" x="709.0415" y="989.8467">ContaCorrente</text><line style="stroke:#181818;stroke-width:0.5;" x1="625" x2="863.3066" y1="1001" y2="1001"/><line style="stroke:#181818;stroke-width:0.5;" x1="625" x2="863.3066" y1="1009" y2="1009"/><ellipse cx="635" cy="1022.6484" fill="#84BE84" rx="3" ry="3" style="stroke:#038048;stroke-width:1.0;"/><text fill="#000000" font-family="sans-serif" font-size="14" lengthAdjust="spacing" textLength="214.3066" x="644" y="1025.9951">ContaCorrente(Cliente cliente)</text><ellipse cx="635" cy="1038.9453" fill="#84BE84" rx="3" ry="3" style="stroke:#038048;stroke-width:1.0;"/><text fill="#000000" font-family="sans-serif" font-size="14" lengthAdjust="spacing" textLength="155.3535" x="644" y="1042.292">void imprimirExtrato()</text></g><!--class ContaPoupanca--><g id="elem_ContaPoupanca"><rect codeLine="53" fill="#F1F1F1" height="80.5938" id="ContaPoupanca" rx="2.5" ry="2.5" style="stroke:#181818;stroke-width:0.5;" width="247.3613" x="899.5" y="969"/><ellipse cx="964.0415" cy="985" fill="#ADD1B2" rx="11" ry="11" style="stroke:#181818;stroke-width:1.0;"/><path d="M967.0103,990.6406 Q966.4321,990.9375 965.7915,991.0781 Q965.1509,991.2344 964.4478,991.2344 Q961.9478,991.2344 960.6196,989.5938 Q959.3071,987.9375 959.3071,984.8125 Q959.3071,981.6875 960.6196,980.0313 Q961.9478,978.375 964.4478,978.375 Q965.1509,978.375 965.7915,978.5313 Q966.4478,978.6875 967.0103,978.9844 L967.0103,981.7031 Q966.3853,981.125 965.7915,980.8594 Q965.1978,980.5781 964.5728,980.5781 Q963.229,980.5781 962.5415,981.6563 Q961.854,982.7188 961.854,984.8125 Q961.854,986.9063 962.5415,987.9844 Q963.229,989.0469 964.5728,989.0469 Q965.1978,989.0469 965.7915,988.7813 Q966.3853,988.5 967.0103,987.9219 L967.0103,990.6406 Z " fill="#000000"/><text fill="#000000" font-family="sans-serif" font-size="14" lengthAdjust="spacing" textLength="109.7783" x="984.5415" y="989.8467">ContaPoupanca</text><line style="stroke:#181818;stroke-width:0.5;" x1="900.5" x2="1145.8613" y1="1001" y2="1001"/><line style="stroke:#181818;stroke-width:0.5;" x1="900.5" x2="1145.8613" y1="1009" y2="1009"/><ellipse cx="910.5" cy="1022.6484" fill="#84BE84" rx="3" ry="3" style="stroke:#038048;stroke-width:1.0;"/><text fill="#000000" font-family="sans-serif" font-size="14" lengthAdjust="spacing" textLength="221.3613" x="919.5" y="1025.9951">ContaPoupanca(Cliente cliente)</text><ellipse cx="910.5" cy="1038.9453" fill="#84BE84" rx="3" ry="3" style="stroke:#038048;stroke-width:1.0;"/><text fill="#000000" font-family="sans-serif" font-size="14" lengthAdjust="spacing" textLength="155.3535" x="919.5" y="1042.292">void imprimirExtrato()</text></g><!--class IConta--><g id="elem_IConta"><rect codeLine="58" fill="#F1F1F1" height="113.1875" id="IConta" rx="2.5" ry="2.5" style="stroke:#181818;stroke-width:0.5;" width="370.5176" x="928.5" y="360.5"/><ellipse cx="1086.8032" cy="376.5" fill="#B4A7E5" rx="11" ry="11" style="stroke:#181818;stroke-width:1.0;"/><path d="M1082.7251,372.2656 L1082.7251,370.1094 L1090.1157,370.1094 L1090.1157,372.2656 L1087.647,372.2656 L1087.647,380.3438 L1090.1157,380.3438 L1090.1157,382.5 L1082.7251,382.5 L1082.7251,380.3438 L1085.1938,380.3438 L1085.1938,372.2656 L1082.7251,372.2656 Z " fill="#000000"/><text fill="#000000" font-family="sans-serif" font-size="14" font-style="italic" lengthAdjust="spacing" textLength="45.4111" x="1107.3032" y="381.3467">IConta</text><line style="stroke:#181818;stroke-width:0.5;" x1="929.5" x2="1298.0176" y1="392.5" y2="392.5"/><line style="stroke:#181818;stroke-width:0.5;" x1="929.5" x2="1298.0176" y1="400.5" y2="400.5"/><ellipse cx="939.5" cy="414.1484" fill="#84BE84" rx="3" ry="3" style="stroke:#038048;stroke-width:1.0;"/><text fill="#000000" font-family="sans-serif" font-size="14" lengthAdjust="spacing" textLength="170.1465" x="948.5" y="417.4951">void sacar(double valor)</text><ellipse cx="939.5" cy="430.4453" fill="#84BE84" rx="3" ry="3" style="stroke:#038048;stroke-width:1.0;"/><text fill="#000000" font-family="sans-serif" font-size="14" lengthAdjust="spacing" textLength="198.2012" x="948.5" y="433.792">void depositar(double valor)</text><ellipse cx="939.5" cy="446.7422" fill="#84BE84" rx="3" ry="3" style="stroke:#038048;stroke-width:1.0;"/><text fill="#000000" font-family="sans-serif" font-size="14" lengthAdjust="spacing" textLength="344.5176" x="948.5" y="450.0889">void transferir(double valor, Conta contaDestino)</text><ellipse cx="939.5" cy="463.0391" fill="#84BE84" rx="3" ry="3" style="stroke:#038048;stroke-width:1.0;"/><text fill="#000000" font-family="sans-serif" font-size="14" lengthAdjust="spacing" textLength="155.3535" x="948.5" y="466.3857">void imprimirExtrato()</text></g><!--class IBanco--><g id="elem_IBanco"><rect codeLine="65" fill="#F1F1F1" height="145.7813" id="IBanco" rx="2.5" ry="2.5" style="stroke:#181818;stroke-width:0.5;" width="367.8652" x="7" y="344"/><ellipse cx="162.9585" cy="360" fill="#B4A7E5" rx="11" ry="11" style="stroke:#181818;stroke-width:1.0;"/><path d="M158.8804,355.7656 L158.8804,353.6094 L166.271,353.6094 L166.271,355.7656 L163.8022,355.7656 L163.8022,363.8438 L166.271,363.8438 L166.271,366 L158.8804,366 L158.8804,363.8438 L161.3491,363.8438 L161.3491,355.7656 L158.8804,355.7656 Z " fill="#000000"/><text fill="#000000" font-family="sans-serif" font-size="14" font-style="italic" lengthAdjust="spacing" textLength="47.4482" x="183.4585" y="364.8467">IBanco</text><line style="stroke:#181818;stroke-width:0.5;" x1="8" x2="373.8652" y1="376" y2="376"/><line style="stroke:#181818;stroke-width:0.5;" x1="8" x2="373.8652" y1="384" y2="384"/><ellipse cx="18" cy="397.6484" fill="#84BE84" rx="3" ry="3" style="stroke:#038048;stroke-width:1.0;"/><text fill="#000000" font-family="sans-serif" font-size="14" lengthAdjust="spacing" textLength="259.5195" x="27" y="400.9951">void adicionarCliente(Cliente cliente)</text><ellipse cx="18" cy="413.9453" fill="#84BE84" rx="3" ry="3" style="stroke:#038048;stroke-width:1.0;"/><text fill="#000000" font-family="sans-serif" font-size="14" lengthAdjust="spacing" textLength="254.0303" x="27" y="417.292">void removerCliente(Cliente cliente)</text><ellipse cx="18" cy="430.2422" fill="#84BE84" rx="3" ry="3" style="stroke:#038048;stroke-width:1.0;"/><text fill="#000000" font-family="sans-serif" font-size="14" lengthAdjust="spacing" textLength="280.0615" x="27" y="433.5889">void criarContaCorrente(Cliente cliente)</text><ellipse cx="18" cy="446.5391" fill="#84BE84" rx="3" ry="3" style="stroke:#038048;stroke-width:1.0;"/><text fill="#000000" font-family="sans-serif" font-size="14" lengthAdjust="spacing" textLength="287.1162" x="27" y="449.8857">void criarContaPoupanca(Cliente cliente)</text><ellipse cx="18" cy="462.8359" fill="#84BE84" rx="3" ry="3" style="stroke:#038048;stroke-width:1.0;"/><text fill="#000000" font-family="sans-serif" font-size="14" lengthAdjust="spacing" textLength="341.8652" x="27" y="466.1826">void criarConta(Cliente cliente, String tipoConta)</text><ellipse cx="18" cy="479.1328" fill="#84BE84" rx="3" ry="3" style="stroke:#038048;stroke-width:1.0;"/><text fill="#000000" font-family="sans-serif" font-size="14" lengthAdjust="spacing" textLength="191.8779" x="27" y="482.4795">List&lt;Cliente&gt; getClientes()</text></g><!--class ICliente--><g id="elem_ICliente"><rect codeLine="74" fill="#F1F1F1" height="162.0781" id="ICliente" rx="2.5" ry="2.5" style="stroke:#181818;stroke-width:0.5;" width="269.2295" x="517.5" y="23.5"/><ellipse cx="621.2285" cy="39.5" fill="#B4A7E5" rx="11" ry="11" style="stroke:#181818;stroke-width:1.0;"/><path d="M617.1504,35.2656 L617.1504,33.1094 L624.541,33.1094 L624.541,35.2656 L622.0723,35.2656 L622.0723,43.3438 L624.541,43.3438 L624.541,45.5 L617.1504,45.5 L617.1504,43.3438 L619.6191,43.3438 L619.6191,35.2656 L617.1504,35.2656 Z " fill="#000000"/><text fill="#000000" font-family="sans-serif" font-size="14" font-style="italic" lengthAdjust="spacing" textLength="53.2725" x="641.7285" y="44.3467">ICliente</text><line style="stroke:#181818;stroke-width:0.5;" x1="518.5" x2="785.7295" y1="55.5" y2="55.5"/><line style="stroke:#181818;stroke-width:0.5;" x1="518.5" x2="785.7295" y1="63.5" y2="63.5"/><ellipse cx="528.5" cy="77.1484" fill="#84BE84" rx="3" ry="3" style="stroke:#038048;stroke-width:1.0;"/><text fill="#000000" font-family="sans-serif" font-size="14" lengthAdjust="spacing" textLength="162.1416" x="537.5" y="80.4951">String getSobreNome()</text><ellipse cx="528.5" cy="93.4453" fill="#84BE84" rx="3" ry="3" style="stroke:#038048;stroke-width:1.0;"/><text fill="#000000" font-family="sans-serif" font-size="14" lengthAdjust="spacing" textLength="103.7354" x="537.5" y="96.792">String getCpf()</text><ellipse cx="528.5" cy="109.7422" fill="#84BE84" rx="3" ry="3" style="stroke:#038048;stroke-width:1.0;"/><text fill="#000000" font-family="sans-serif" font-size="14" lengthAdjust="spacing" textLength="176.1553" x="537.5" y="113.0889">List&lt;Conta&gt; getContas()</text><ellipse cx="528.5" cy="126.0391" fill="#84BE84" rx="3" ry="3" style="stroke:#038048;stroke-width:1.0;"/><text fill="#000000" font-family="sans-serif" font-size="14" lengthAdjust="spacing" textLength="243.2295" x="537.5" y="129.3857">void adicionarContas(Conta conta)</text><ellipse cx="528.5" cy="142.3359" fill="#84BE84" rx="3" ry="3" style="stroke:#038048;stroke-width:1.0;"/><text fill="#000000" font-family="sans-serif" font-size="14" lengthAdjust="spacing" textLength="237.7402" x="537.5" y="145.6826">void removerContas(Conta conta)</text><ellipse cx="528.5" cy="158.6328" fill="#84BE84" rx="3" ry="3" style="stroke:#038048;stroke-width:1.0;"/><text fill="#000000" font-family="sans-serif" font-size="14" lengthAdjust="spacing" textLength="121.4336" x="537.5" y="161.9795">String getNome()</text><ellipse cx="528.5" cy="174.9297" fill="#84BE84" rx="3" ry="3" style="stroke:#038048;stroke-width:1.0;"/><text fill="#000000" font-family="sans-serif" font-size="14" lengthAdjust="spacing" textLength="193.6074" x="537.5" y="178.2764">void setNome(String nome)</text></g><!--link Banco to Cliente--><g id="link_Banco_Cliente"><path codeLine="85" d="M371.55,202.04 C403.4,226.34 438.2,252.89 472.12,278.77 " fill="none" id="Banco-Cliente" style="stroke:#181818;stroke-width:1.0;"/><polygon fill="#000000" points="433.9752,243.5993,428.5667,235.7762,425.0014,240.4493,433.9752,243.5993" style="stroke:#000000;stroke-width:1.0;"/><text fill="#000000" font-family="sans-serif" font-size="13" lengthAdjust="spacing" textLength="49.0991" x="439" y="245.0669">cont&#233;m</text><text fill="#000000" font-family="sans-serif" font-size="13" lengthAdjust="spacing" textLength="8.271" x="372.5647" y="221.8377">1</text><text fill="#000000" font-family="sans-serif" font-size="13" lengthAdjust="spacing" textLength="6.5" x="456.1204" y="267.8666">*</text></g><!--link Banco to IBanco--><g id="link_Banco_IBanco"><path codeLine="86" d="M228.21,202.04 C220.25,247.79 210.91,301.52 203.57,343.69 " fill="none" id="Banco-IBanco" style="stroke:#181818;stroke-width:1.0;"/><polygon fill="#000000" points="227.1431,245.4924,231.5887,237.0848,225.7978,236.0775,227.1431,245.4924" style="stroke:#000000;stroke-width:1.0;"/><text fill="#000000" font-family="sans-serif" font-size="13" lengthAdjust="spacing" textLength="78.1016" x="237" y="245.0669">implementa</text><text fill="#000000" font-family="sans-serif" font-size="13" lengthAdjust="spacing" textLength="8.271" x="218.6981" y="221.8377">1</text><text fill="#000000" font-family="sans-serif" font-size="13" lengthAdjust="spacing" textLength="8.271" x="196.4336" y="332.8195">1</text></g><!--link Cliente to Conta--><g id="link_Cliente_Conta"><path codeLine="87" d="M742.3,555.21 C758.88,580.4 776.18,606.7 792.76,631.88 " fill="none" id="Cliente-Conta" style="stroke:#181818;stroke-width:1.0;"/><polygon fill="#000000" points="774.7488,597.743,772.2311,588.5718,767.3212,591.8032,774.7488,597.743" style="stroke:#000000;stroke-width:1.0;"/><text fill="#000000" font-family="sans-serif" font-size="13" lengthAdjust="spacing" textLength="41.6025" x="781" y="598.0669">possui</text><text fill="#000000" font-family="sans-serif" font-size="13" lengthAdjust="spacing" textLength="8.271" x="739.0149" y="575.2448">1</text><text fill="#000000" font-family="sans-serif" font-size="13" lengthAdjust="spacing" textLength="6.5" x="781.6878" y="620.9827">*</text></g><!--reverse link Conta to ContaCorrente--><g id="link_Conta_ContaCorrente"><path codeLine="88" d="M793.6603,923.6563 C780.6603,945.8763 777.26,951.67 767.17,968.92 " fill="none" id="Conta-backto-ContaCorrente" style="stroke:#181818;stroke-width:1.0;"/><polygon fill="none" points="802.75,908.12,788.4816,920.6265,798.8391,926.6862,802.75,908.12" style="stroke:#181818;stroke-width:1.0;"/></g><!--reverse link Conta to ContaPoupanca--><g id="link_Conta_ContaPoupanca"><path codeLine="89" d="M972.9716,923.6258 C986.0716,945.8458 989.5,951.67 999.67,968.92 " fill="none" id="Conta-backto-ContaPoupanca" style="stroke:#181818;stroke-width:1.0;"/><polygon fill="none" points="963.83,908.12,967.803,926.673,978.1402,920.5786,963.83,908.12" style="stroke:#181818;stroke-width:1.0;"/></g><!--reverse link IConta to Conta--><g id="link_IConta_Conta"><path codeLine="90" d="M1067.5029,488.6549 C1039.5129,531.1749 1009.58,576.66 973.26,631.86 " fill="none" id="IConta-backto-Conta" style="stroke:#181818;stroke-width:1.0;stroke-dasharray:7.0,7.0;"/><polygon fill="none" points="1077.4,473.62,1062.4913,485.3558,1072.5145,491.9539,1077.4,473.62" style="stroke:#181818;stroke-width:1.0;"/><text fill="#000000" font-family="sans-serif" font-size="13" lengthAdjust="spacing" textLength="78.1016" x="999" y="598.0669">implementa</text></g><!--reverse link ICliente to Cliente--><g id="link_ICliente_Cliente"><path codeLine="91" d="M652,203.87 C652,232.26 652,247.04 652,278.8 " fill="none" id="ICliente-backto-Cliente" style="stroke:#181818;stroke-width:1.0;stroke-dasharray:7.0,7.0;"/><polygon fill="none" points="652,185.87,646,203.87,658,203.87,652,185.87" style="stroke:#181818;stroke-width:1.0;"/><text fill="#000000" font-family="sans-serif" font-size="13" lengthAdjust="spacing" textLength="78.1016" x="653" y="245.0669">implementa</text></g><!--SRC=[vLNRYjim47ttLmnvMRURBFGrB87K6ufXIRSR-bmKMGu2MsCaEIni-q7zZlvOTVNwabtSfrAQXzYPEJhIp3aPNK5M4QMOWaPoGNb3k4ge3S578YZ2SmBciu9xhlHjLd4cDDi0zI_A9QyzD7qNVWsX9wR3k-eGP-G5a89JZeB8a4x3Cv8Fm9BLU6Qpe5Homub2amob_0Fu0xQDAOJCX8zXIpXeqyCJQDwWGyI5COx-nRJXHnAQ73bYcvKccbFWGWEr50NAl0YW0B4vFeg57GJMeuZ2esJxIPWsvK1NkzN6xnWrZQtkKIydhCiUuJ8uvcY_HwKR4rXuEWqV8jM5NDQK8rFvSzgKE-fhXl99z_15NVJIgwYBUf6Zqf9GeuiNpYqRoLPoGIedqFRJRf_bssyFsxl7xUUfk8VTbwyESTzJbPoO-GkINaIqDPCO0WMsnug18bM1KQHBHXmKgmWbCWrBpwH2EKWNh475zLiGKxLG9PDyY5b2htDtJ6akEjNjqOr8MrzFEWhlNL5TD91QBzZAkdWZKJEgMU6FmMipeMekSr6Yoh1kXKhd_C7wWo3eTGtpnqFSTlTa-g1nGXs7nf1wrYYvI6rwn6H9A8EyRx6_gUQim_PlY_zkmBzruuqq7SpxVsGGZgUtjs88zku7L-mLFBAAkFrhKoggn5jZyM41gnKitY-wIs_jTllriuRD26GUmL5hwxoAMIfYO75fdysTUmt6-ghb5kC2jzzDVk2IIIBw8SbZvkQcetlPDkbKyu3kz2-Gtm00]--></g></svg>